<?xml version="1.0" standalone="no"?>
<!DOCTYPE svg PUBLIC "-//W3C//DTD SVG 20010904//EN"
 "http://www.w3.org/TR/2001/REC-SVG-20010904/DTD/svg10.dtd">
<svg version="1.0" xmlns="http://www.w3.org/2000/svg"
 width="259.000000pt" height="259.000000pt" viewBox="0 0 259.000000 259.000000"
 preserveAspectRatio="xMidYMid meet">
<metadata>
Created by potrace 1.11, written by Peter Selinger 2001-2013
</metadata>
<g transform="translate(0.000000,259.000000) scale(0.100000,-0.100000)"
fill="#000000" stroke="none">
<path d="M0 1300 l0 -1090 1295 0 1295 0 0 1090 0 1090 -1295 0 -1295 0 0
-1090z m1755 686 c68 -72 75 -82 75 -105 0 -23 22 -19 54 10 10 10 32 21 47
24 16 4 31 11 34 16 4 5 17 9 30 9 13 0 27 5 30 10 3 6 25 10 49 10 37 0 48
-6 89 -47 55 -57 87 -114 87 -160 0 -86 -77 -272 -139 -334 -9 -10 -32 -36
-51 -60 -39 -47 -88 -94 -124 -118 -13 -9 -42 -28 -64 -43 -23 -16 -47 -28
-54 -28 -13 1 -92 102 -103 132 -4 11 3 21 22 30 57 30 98 53 103 59 3 3 23
18 45 35 94 69 131 107 189 194 47 71 80 160 74 206 -8 72 -116 28 -278 -114
-103 -90 -118 -109 -125 -155 -4 -23 -11 -46 -15 -52 -8 -12 -50 -143 -50
-159 0 -6 -6 -23 -14 -37 -7 -14 -16 -37 -19 -52 -4 -14 -21 -55 -37 -90 -17
-36 -30 -68 -30 -71 0 -3 -20 -49 -45 -100 -25 -52 -45 -98 -45 -102 0 -6 -95
-167 -115 -193 -5 -8 -31 -36 -57 -63 -94 -96 -141 -90 -221 28 -31 46 -36
111 -13 156 8 15 17 42 21 60 11 47 56 139 144 289 28 48 51 90 51 93 0 4 15
27 33 50 17 24 39 54 47 66 14 20 73 100 92 125 61 77 88 115 88 124 0 6 4 19
9 29 17 31 67 254 76 335 7 58 7 59 33 52 15 -4 50 -30 77 -59z m-631 19 c70
-34 166 -165 166 -228 0 -67 -79 -238 -162 -352 -73 -98 -83 -100 -152 -28
-53 55 -68 83 -46 83 11 0 66 70 136 170 42 61 84 153 84 184 0 23 -4 26 -32
26 -66 -1 -216 -66 -265 -116 -8 -8 -18 -14 -22 -14 -18 0 -172 -160 -211
-220 -8 -12 -21 -28 -27 -36 -7 -7 -13 -15 -13 -18 0 -4 -9 -25 -19 -49 -30
-64 -51 -118 -51 -129 0 -10 88 -7 270 8 61 5 67 3 96 -24 17 -15 44 -56 59
-90 24 -53 27 -71 22 -120 -8 -82 -49 -155 -127 -231 -82 -81 -130 -121 -142
-121 -5 0 -26 -11 -46 -25 -20 -14 -45 -25 -54 -25 -10 0 -18 -4 -18 -9 0 -10
-83 -31 -152 -38 -42 -4 -50 -2 -74 24 -36 38 -124 154 -124 163 0 4 54 9 120
12 66 3 125 10 132 15 7 6 32 14 56 18 23 4 42 11 42 16 0 5 5 9 11 9 14 0
149 89 149 98 0 4 13 21 28 37 39 43 58 75 67 114 l7 33 -69 -6 c-210 -18
-269 -18 -300 1 -33 20 -68 60 -95 110 -63 112 43 364 232 547 56 55 128 113
164 131 11 6 30 17 41 23 11 6 38 18 60 28 22 9 49 20 60 25 49 21 158 23 199
4z"/>
<path d="M1375 1149 c-42 -59 -120 -199 -152 -274 -42 -99 -39 -166 4 -97 10
15 20 29 23 32 20 20 176 377 168 386 -3 3 -22 -19 -43 -47z"/>
</g>
</svg>
