<?xml version="1.0" standalone="no"?>
<!DOCTYPE svg PUBLIC "-//W3C//DTD SVG 20010904//EN"
 "http://www.w3.org/TR/2001/REC-SVG-20010904/DTD/svg10.dtd">
<svg version="1.0" xmlns="http://www.w3.org/2000/svg"
 width="260.000000pt" height="260.000000pt" viewBox="0 0 260.000000 260.000000"
 preserveAspectRatio="xMidYMid meet">
<metadata>
Created by potrace 1.11, written by Peter Selinger 2001-2013
</metadata>
<g transform="translate(0.000000,260.000000) scale(0.100000,-0.100000)"
fill="#000000" stroke="none">
<path d="M1746 2063 c-9 -90 -25 -179 -52 -293 -39 -166 -42 -174 -79 -217
-19 -23 -35 -46 -35 -51 0 -5 -7 -15 -15 -22 -17 -14 -105 -137 -105 -147 0
-3 -12 -21 -26 -40 -28 -37 -81 -127 -129 -218 -17 -33 -36 -69 -43 -80 -25
-44 -95 -203 -113 -255 -10 -30 -25 -73 -33 -95 -25 -67 -21 -125 14 -171 16
-21 30 -43 30 -48 0 -6 12 -23 27 -38 20 -21 36 -28 65 -28 85 0 218 187 362
510 15 36 35 88 43 115 8 28 29 88 47 135 31 78 64 182 131 400 32 104 48 125
177 237 94 82 226 163 264 163 7 0 21 -11 30 -25 37 -56 -25 -230 -128 -362
-70 -89 -204 -204 -284 -244 -36 -18 -68 -37 -70 -41 -7 -10 86 -154 104 -162
20 -9 158 92 226 165 194 210 294 485 226 620 -12 22 -42 62 -69 90 -42 44
-52 49 -90 49 -24 0 -55 -6 -69 -14 -15 -8 -47 -20 -70 -27 -24 -7 -65 -28
-90 -46 -26 -18 -50 -33 -54 -33 -5 0 -8 13 -8 30 0 51 -121 200 -163 200 -12
0 -17 -15 -21 -57z m-271 -1032 c-19 -45 -35 -89 -35 -96 0 -29 -142 -323
-172 -355 -58 -62 -60 41 -4 163 69 149 104 215 146 274 17 23 30 44 30 48 0
4 15 27 33 52 30 42 32 44 35 21 2 -13 -13 -61 -33 -107z"/>
<path d="M1005 2078 c-33 -5 -73 -15 -90 -23 -145 -67 -177 -87 -255 -151 -61
-49 -181 -184 -215 -239 -10 -16 -28 -46 -41 -65 -42 -64 -105 -241 -111 -312
-7 -75 8 -115 75 -203 50 -66 74 -71 266 -57 83 6 161 14 173 18 36 10 38 -19
7 -92 -20 -48 -47 -86 -104 -145 -42 -43 -83 -79 -90 -79 -7 0 -21 -6 -29 -14
-27 -24 -119 -66 -178 -82 -32 -8 -100 -17 -152 -19 -53 -2 -97 -8 -99 -13 -2
-6 20 -41 48 -79 27 -37 60 -83 71 -100 20 -31 25 -33 78 -33 35 0 65 6 77 15
10 8 26 14 34 15 8 0 58 21 109 47 73 37 115 67 180 129 104 98 154 169 181
253 25 78 25 132 2 196 -21 58 -27 70 -66 119 -28 34 -33 36 -85 36 -31 0 -92
-7 -136 -15 -79 -14 -197 -20 -207 -10 -6 7 16 96 31 121 6 11 22 44 36 74 65
143 158 260 293 372 100 83 125 99 202 129 122 49 190 55 190 16 0 -25 -44
-143 -65 -172 -12 -16 -29 -47 -39 -68 -9 -21 -30 -52 -44 -70 -15 -18 -34
-45 -42 -61 -8 -16 -27 -42 -42 -57 -16 -15 -28 -30 -28 -33 0 -13 105 -136
117 -136 15 0 72 61 95 101 9 17 23 38 31 47 23 27 103 201 121 264 31 109 16
176 -61 278 -45 59 -79 85 -128 99 -22 6 -42 10 -45 10 -3 -1 -32 -6 -65 -11z"/>
</g>
</svg>
